<svg width="60" height="59" viewBox="0 0 60 59" fill="none" xmlns="http://www.w3.org/2000/svg">
<path d="M59.0115 47.2403C58.5305 46.442 57.9016 45.7516 57.1617 45.2096C56.4218 44.6675 55.5856 44.2848 54.7022 44.0835C51.3221 43.2639 48.3907 41.0827 46.5484 38.0166C44.7061 34.9505 44.1028 31.2487 44.8702 27.7203C45.1653 26.3565 45.0673 24.9323 44.5885 23.6264C44.1097 22.3205 43.2715 21.1912 42.1792 20.3804C41.0868 19.5696 39.789 19.1134 38.4487 19.069C37.1084 19.0247 35.7856 19.3942 34.6461 20.1311C33.5066 20.8682 32.6014 21.9397 32.0441 23.2113C31.4869 24.483 31.3024 25.8978 31.514 27.2783C31.7255 28.6589 32.3236 29.9435 33.2331 30.9708C34.1425 31.9981 35.3229 32.7224 36.6259 33.0525C38.3116 33.4489 39.9056 34.1883 41.3167 35.2283C42.7277 36.2682 43.9281 37.5883 44.8488 39.1128C45.7696 40.6374 46.3927 42.3364 46.6824 44.1125C46.9722 45.8886 46.9229 47.7069 46.5374 49.463C46.309 50.5952 46.3497 51.7684 46.6559 52.8803C46.9622 53.9922 47.5246 55.0092 48.2942 55.8426C49.0638 56.676 50.0172 57.3006 51.0713 57.6618C52.1255 58.023 53.2483 58.1099 54.3421 57.9151C55.4359 57.7202 56.4673 57.2493 57.3466 56.5436C58.2258 55.8379 58.9261 54.9187 59.3866 53.8661C59.847 52.8135 60.0535 51.6595 59.9882 50.5047C59.9228 49.3498 59.5876 48.2291 59.0115 47.2403Z" fill="#1400F8"/>
<path d="M17.1773 39.366C18.3676 40.0432 19.7248 40.3342 21.0747 40.2016C22.4248 40.0691 23.7059 39.519 24.754 38.622C25.8021 37.7249 26.5692 36.5219 26.9568 35.1672C27.3446 33.8125 27.3352 32.3679 26.9298 31.0188C26.4161 29.2985 26.2332 27.4895 26.3914 25.6954C26.5496 23.9013 27.0458 22.1573 27.8519 20.5636C28.6578 18.9699 29.7575 17.5576 31.088 16.4078C32.4185 15.258 33.9535 14.3935 35.6052 13.8634C36.8861 13.4451 38.0197 12.6411 38.8634 11.5526C39.7071 10.4642 40.2231 9.13986 40.3465 7.74629C40.47 6.35273 40.1954 4.95221 39.5572 3.7211C38.919 2.48991 37.9457 1.48303 36.76 0.827206C35.5742 0.171385 34.2288 -0.104182 32.8933 0.0353396C31.5576 0.174774 30.2914 0.722956 29.2539 1.61099C28.2164 2.49895 27.4541 3.68705 27.0627 5.02571C26.6714 6.36437 26.6685 7.79381 27.0546 9.13412C28.068 12.5944 27.7253 16.3323 26.1016 19.5298C24.4778 22.7272 21.7053 25.1238 18.3907 26.1949C17.0822 26.5906 15.9177 27.3865 15.0481 28.4799C14.1784 29.5733 13.6435 30.9137 13.5128 32.3275C13.3821 33.7414 13.6615 35.1637 14.3149 36.4101C14.9682 37.6565 15.9654 38.6698 17.1773 39.3186V39.366Z" fill="#414042"/>
<path d="M34.6866 38.2071C33.782 38.2402 32.8928 38.4612 32.071 38.8571C31.2492 39.253 30.5116 39.8158 29.901 40.5127C27.5325 43.154 24.2571 44.7101 20.7913 44.8408C17.3253 44.9716 13.9506 43.6662 11.4052 41.2102C10.7475 40.5668 9.97371 40.0662 9.12877 39.7373C8.28392 39.4085 7.38475 39.2581 6.48357 39.2949C5.37432 39.3494 4.29466 39.6863 3.33899 40.2759C2.38323 40.8655 1.58054 41.69 1.00084 42.6775C0.421054 43.665 0.0819982 44.7854 0.0130871 45.9409C-0.0557407 47.0965 0.14766 48.2521 0.605707 49.3068C1.06375 50.3615 1.76236 51.2833 2.64071 51.9918C3.51906 52.7002 4.55031 53.1737 5.64455 53.371C6.7388 53.5683 7.86279 53.4834 8.91829 53.1237C9.97387 52.7639 10.9289 52.1403 11.7 51.3072C12.8731 49.9831 14.2851 48.9132 15.8553 48.1589C17.4256 47.4047 19.1231 46.9807 20.8507 46.9116C22.5784 46.8424 24.3021 47.1292 25.9233 47.7557C27.5444 48.3822 29.031 49.3359 30.298 50.5623C31.1228 51.3394 32.1178 51.8939 33.1957 52.1773C34.2737 52.4607 35.4017 52.4645 36.4814 52.1882C37.5611 51.9119 38.5592 51.3641 39.3889 50.5926C40.2185 49.821 40.8541 48.8492 41.2402 47.7623C41.6263 46.6755 41.751 45.5065 41.6036 44.3577C41.4561 43.209 41.0409 42.1154 40.3942 41.1725C39.7476 40.2298 38.8893 39.4666 37.8943 38.9496C36.8993 38.4327 35.798 38.1777 34.6866 38.2071Z" fill="#414042"/>
</svg>
